<svg width="1200" height="1800" viewBox="0 0 1200 1800" fill="none" xmlns="http://www.w3.org/2000/svg">
  <rect width="1200" height="1800" rx="48" fill="#0A0D16"/>
  <rect x="34" y="34" width="1132" height="1732" rx="30" stroke="rgba(103,215,255,0.25)" stroke-width="2"/>
  <g opacity="0.92">
    <circle cx="248" cy="294" r="150" fill="url(#a)"/>
    <circle cx="898" cy="410" r="200" fill="url(#b)"/>
    <circle cx="814" cy="1318" r="208" fill="url(#c)"/>
  </g>
  <g opacity="0.34">
    <path d="M116 272H1084" stroke="#67D7FF" stroke-width="2"/>
    <path d="M116 414H1084" stroke="#67D7FF" stroke-width="2"/>
    <path d="M116 556H1084" stroke="#67D7FF" stroke-width="2"/>
    <path d="M116 698H1084" stroke="#67D7FF" stroke-width="2"/>
    <path d="M116 840H1084" stroke="#67D7FF" stroke-width="2"/>
    <path d="M116 982H1084" stroke="#67D7FF" stroke-width="2"/>
    <path d="M116 1124H1084" stroke="#67D7FF" stroke-width="2"/>
    <path d="M116 1266H1084" stroke="#67D7FF" stroke-width="2"/>
    <path d="M116 1408H1084" stroke="#67D7FF" stroke-width="2"/>
    <path d="M116 1550H1084" stroke="#67D7FF" stroke-width="2"/>
    <path d="M210 180V1620" stroke="#67D7FF" stroke-width="2"/>
    <path d="M398 180V1620" stroke="#67D7FF" stroke-width="2"/>
    <path d="M586 180V1620" stroke="#67D7FF" stroke-width="2"/>
    <path d="M774 180V1620" stroke="#67D7FF" stroke-width="2"/>
    <path d="M962 180V1620" stroke="#67D7FF" stroke-width="2"/>
  </g>
  <g opacity="0.82">
    <circle cx="248" cy="294" r="24" fill="#FFE1BD"/>
    <circle cx="398" cy="556" r="18" fill="#67D7FF"/>
    <circle cx="586" cy="698" r="20" fill="#67D7FF"/>
    <circle cx="774" cy="840" r="18" fill="#FFB25F"/>
    <circle cx="962" cy="982" r="24" fill="#FF5FA7"/>
    <circle cx="814" cy="1318" r="22" fill="#8A73FF"/>
    <path d="M248 294L398 556L586 698L774 840L962 982" stroke="#67D7FF" stroke-width="8" stroke-linecap="round"/>
    <path d="M774 840L814 1318" stroke="#FFB25F" stroke-width="8" stroke-linecap="round"/>
    <path d="M398 556L814 1318" stroke="#8A73FF" stroke-width="6" stroke-linecap="round" opacity="0.68"/>
  </g>
  <rect x="108" y="132" width="230" height="62" rx="31" fill="rgba(255,178,95,0.14)" stroke="rgba(255,178,95,0.45)" stroke-width="2"/>
  <text fill="#FFE1BD" font-family="'IBM Plex Mono', monospace" font-size="30" font-weight="600" letter-spacing="4" x="154" y="172">VOLUME 1</text>
  <text fill="#F8FAFF" font-family="'Chakra Petch', sans-serif" font-size="96" font-weight="700" letter-spacing="-2" x="108" y="910">Learn C#, Software</text>
  <text fill="#F8FAFF" font-family="'Chakra Petch', sans-serif" font-size="96" font-weight="700" letter-spacing="-2" x="108" y="1014">Architecture, and</text>
  <text fill="#F8FAFF" font-family="'Chakra Petch', sans-serif" font-size="96" font-weight="700" letter-spacing="-2" x="108" y="1118">Game Development</text>
  <text fill="#C8D4EA" font-family="'Sora', sans-serif" font-size="42" font-weight="500" x="114" y="1198">From First Principles Through a Console RPG</text>
  <text fill="#67D7FF" font-family="'IBM Plex Mono', monospace" font-size="28" font-weight="500" letter-spacing="2" x="114" y="1266">C# / SOFTWARE ARCHITECTURE / GAME DEVELOPMENT</text>
  <rect x="108" y="1376" width="984" height="208" rx="28" fill="rgba(10,17,34,0.76)" stroke="rgba(138,115,255,0.36)" stroke-width="2"/>
  <text fill="#F8FAFF" font-family="'Sora', sans-serif" font-size="34" font-weight="600" x="146" y="1454">Build a console RPG while learning how code, state,</text>
  <text fill="#F8FAFF" font-family="'Sora', sans-serif" font-size="34" font-weight="600" x="146" y="1504">boundaries, and durable software habits fit together.</text>
  <text fill="#C8D4EA" font-family="'IBM Plex Mono', monospace" font-size="32" font-weight="500" letter-spacing="3" x="108" y="1680">TANVIR AHMED ARNAB</text>
  <defs>
    <radialGradient id="a" cx="0" cy="0" r="1" gradientUnits="userSpaceOnUse" gradientTransform="translate(248 294) rotate(90) scale(150)">
      <stop stop-color="#67D7FF" stop-opacity="0.42"/>
      <stop offset="1" stop-color="#67D7FF" stop-opacity="0"/>
    </radialGradient>
    <radialGradient id="b" cx="0" cy="0" r="1" gradientUnits="userSpaceOnUse" gradientTransform="translate(898 410) rotate(90) scale(200)">
      <stop stop-color="#8A73FF" stop-opacity="0.4"/>
      <stop offset="1" stop-color="#8A73FF" stop-opacity="0"/>
    </radialGradient>
    <radialGradient id="c" cx="0" cy="0" r="1" gradientUnits="userSpaceOnUse" gradientTransform="translate(814 1318) rotate(90) scale(208)">
      <stop stop-color="#FF5FA7" stop-opacity="0.28"/>
      <stop offset="1" stop-color="#FF5FA7" stop-opacity="0"/>
    </radialGradient>
  </defs>
</svg>
