<svg xmlns="http://www.w3.org/2000/svg" viewBox="0 0 1600 820" role="img" aria-labelledby="title desc">
  <title id="title">Abstract monochrome drummer hero artwork</title>
  <desc id="desc">A dark abstract composition featuring a long-haired metal drummer, drum kit shapes, cymbal arcs, and layered grayscale ribbons.</desc>
  <defs>
    <linearGradient id="bg" x1="0" y1="0" x2="1" y2="1">
      <stop offset="0%" stop-color="#191919"/>
      <stop offset="48%" stop-color="#0E0E0E"/>
      <stop offset="100%" stop-color="#050505"/>
    </linearGradient>
    <linearGradient id="smoke" x1="0" y1="0" x2="1" y2="0">
      <stop offset="0%" stop-color="#5A5A5A" stop-opacity="0.18"/>
      <stop offset="52%" stop-color="#B3B3B3" stop-opacity="0.1"/>
      <stop offset="100%" stop-color="#121212" stop-opacity="0.02"/>
    </linearGradient>
    <linearGradient id="sheen" x1="0" y1="0" x2="1" y2="1">
      <stop offset="0%" stop-color="#E6E6E6" stop-opacity="0.18"/>
      <stop offset="100%" stop-color="#6A6A6A" stop-opacity="0.04"/>
    </linearGradient>
    <filter id="blurLarge" x="-20%" y="-20%" width="140%" height="140%">
      <feGaussianBlur stdDeviation="26"/>
    </filter>
  </defs>

  <rect width="1600" height="820" fill="url(#bg)"/>

  <g opacity="0.95">
    <circle cx="188" cy="168" r="216" fill="#3E3E3E" opacity="0.12" filter="url(#blurLarge)"/>
    <circle cx="1356" cy="148" r="228" fill="#8C8C8C" opacity="0.12" filter="url(#blurLarge)"/>
    <circle cx="1104" cy="704" r="192" fill="#575757" opacity="0.1" filter="url(#blurLarge)"/>
  </g>

  <g opacity="0.92">
    <path d="M -120 286 C 184 210 438 226 656 304 C 872 382 1048 388 1254 334 C 1420 292 1518 262 1710 270 L 1710 388 C 1494 378 1328 412 1148 458 C 936 510 724 510 508 438 C 294 366 112 350 -120 394 Z" fill="url(#sheen)"/>
    <path d="M -140 594 C 132 446 352 418 582 460 C 846 510 1096 544 1700 430 L 1700 664 C 1082 748 820 716 536 632 C 320 566 128 548 -140 694 Z" fill="url(#smoke)"/>
  </g>

  <g fill="none" stroke-linecap="round" stroke-linejoin="round">
    <path d="M 184 688 C 366 548 576 502 820 508 C 1046 512 1260 430 1458 238" stroke="#A6A6A6" stroke-opacity="0.26" stroke-width="2.4"/>
    <path d="M 244 138 C 424 90 654 104 874 176 C 1092 248 1284 236 1456 130" stroke="#D9D9D9" stroke-opacity="0.28" stroke-width="2.3"/>
    <path d="M 286 242 C 456 182 642 188 804 258 C 968 330 1144 346 1328 286" stroke="#6E6E6E" stroke-opacity="0.26" stroke-width="1.8"/>
  </g>

  <g fill="none" stroke="#BFBFBF" stroke-opacity="0.1" stroke-width="1">
    <path d="M 0 126 H 1600"/>
    <path d="M 0 250 H 1600"/>
    <path d="M 0 374 H 1600"/>
    <path d="M 0 498 H 1600"/>
    <path d="M 0 622 H 1600"/>
    <path d="M 0 746 H 1600"/>
    <path d="M 160 0 V 820"/>
    <path d="M 320 0 V 820"/>
    <path d="M 480 0 V 820"/>
    <path d="M 640 0 V 820"/>
    <path d="M 800 0 V 820"/>
    <path d="M 960 0 V 820"/>
    <path d="M 1120 0 V 820"/>
    <path d="M 1280 0 V 820"/>
    <path d="M 1440 0 V 820"/>
  </g>

  <g opacity="0.22" fill="none" stroke="#D9D9D9">
    <circle cx="430" cy="434" r="146" stroke-width="2"/>
    <circle cx="430" cy="434" r="92" stroke-width="1.4"/>
    <circle cx="1204" cy="396" r="150" stroke-width="2"/>
    <circle cx="1204" cy="396" r="88" stroke-width="1.2"/>
  </g>

  <g opacity="0.28" fill="none" stroke="#F2F2F2" stroke-linecap="round">
    <path d="M 1118 110 h208 a22 22 0 0 1 22 22 v124 a22 22 0 0 1 -22 22 h-208 a22 22 0 0 1 -22 -22 v-124 a22 22 0 0 1 22 -22z"/>
    <path d="M 1160 152 h118" stroke-width="2"/>
    <path d="M 1160 186 h138" stroke-width="2"/>
    <path d="M 1160 220 h96" stroke-width="2"/>
  </g>

  <g opacity="0.16" fill="none" stroke="#BFBFBF" stroke-linecap="round">
    <path d="M 246 356 H 460"/>
    <path d="M 246 392 H 430"/>
    <path d="M 246 428 H 486"/>
    <path d="M 246 464 H 418"/>
    <path d="M 246 500 H 468"/>
  </g>

  <g transform="translate(878 430)">
    <ellipse cx="-146" cy="-120" rx="116" ry="24" fill="#8A8A8A" opacity="0.16"/>
    <ellipse cx="152" cy="-116" rx="118" ry="24" fill="#8A8A8A" opacity="0.16"/>
    <path d="M -148 -118 L -184 12" stroke="#7A7A7A" stroke-opacity="0.3" stroke-width="4"/>
    <path d="M 152 -114 L 188 8" stroke="#7A7A7A" stroke-opacity="0.3" stroke-width="4"/>

    <circle cx="0" cy="-54" r="40" fill="#CFCFCF" opacity="0.18"/>
    <path d="M -60 34 C -48 -26 -30 -74 0 -88 C 32 -72 54 -26 68 34 C 42 90 12 120 -14 122 C -38 110 -56 82 -60 34 Z" fill="#141414" opacity="0.96"/>
    <path d="M -74 -30 C -44 -76 -16 -108 8 -110 C 44 -92 72 -56 88 0 C 70 28 46 46 8 50 C -26 46 -54 20 -74 -30 Z" fill="#212121" opacity="0.84"/>
    <path d="M -92 -54 C -40 -96 12 -112 62 -98 C 46 -48 28 6 6 44 C -30 22 -62 -6 -92 -54 Z" fill="#080808" opacity="0.98"/>
    <path d="M 58 -82 C 90 -46 112 -2 110 48 C 78 24 46 8 16 2 C 28 -28 40 -56 58 -82 Z" fill="#090909" opacity="0.96"/>

    <path d="M 0 -92 L 0 30" stroke="#D9D9D9" stroke-opacity="0.24" stroke-width="4"/>
    <path d="M -26 40 L -58 150" stroke="#8A8A8A" stroke-opacity="0.36" stroke-width="5"/>
    <path d="M 26 40 L 64 152" stroke="#8A8A8A" stroke-opacity="0.36" stroke-width="5"/>
    <path d="M -26 -38 L -120 -144" stroke="#CFCFCF" stroke-opacity="0.3" stroke-width="5"/>
    <path d="M 22 -36 L 112 -162" stroke="#CFCFCF" stroke-opacity="0.3" stroke-width="5"/>

    <circle cx="-74" cy="94" r="54" fill="#151515" stroke="#BFBFBF" stroke-opacity="0.16" stroke-width="3"/>
    <circle cx="76" cy="94" r="54" fill="#151515" stroke="#BFBFBF" stroke-opacity="0.16" stroke-width="3"/>
    <circle cx="0" cy="194" r="100" fill="#111111" stroke="#CFCFCF" stroke-opacity="0.18" stroke-width="4"/>
    <circle cx="0" cy="194" r="54" fill="none" stroke="#7E7E7E" stroke-opacity="0.22" stroke-width="2.5"/>

    <path d="M -130 10 C -116 58 -116 102 -122 160" stroke="#6A6A6A" stroke-opacity="0.28" stroke-width="4"/>
    <path d="M 128 12 C 116 58 116 102 122 160" stroke="#6A6A6A" stroke-opacity="0.28" stroke-width="4"/>
    <path d="M -34 44 L -34 114" stroke="#666666" stroke-opacity="0.3" stroke-width="4"/>
    <path d="M 34 44 L 34 114" stroke="#666666" stroke-opacity="0.3" stroke-width="4"/>
  </g>

  <g opacity="0.66">
    <circle cx="412" cy="438" r="18" fill="#6A6A6A"/>
    <circle cx="1192" cy="410" r="22" fill="#8C8C8C"/>
    <circle cx="740" cy="536" r="16" fill="#4A4A4A"/>
    <circle cx="858" cy="500" r="12" fill="#BFBFBF"/>
  </g>

  <g fill="#D9D9D9" opacity="0.22">
    <rect x="96" y="100" width="4" height="4" rx="2"/>
    <rect x="132" y="100" width="4" height="4" rx="2"/>
    <rect x="168" y="100" width="4" height="4" rx="2"/>
    <rect x="204" y="100" width="4" height="4" rx="2"/>
    <rect x="96" y="136" width="4" height="4" rx="2"/>
    <rect x="132" y="136" width="4" height="4" rx="2"/>
    <rect x="168" y="136" width="4" height="4" rx="2"/>
    <rect x="204" y="136" width="4" height="4" rx="2"/>
    <rect x="96" y="172" width="4" height="4" rx="2"/>
    <rect x="132" y="172" width="4" height="4" rx="2"/>
    <rect x="168" y="172" width="4" height="4" rx="2"/>
    <rect x="204" y="172" width="4" height="4" rx="2"/>
  </g>
</svg>
