<svg width="1600" height="900" viewBox="0 0 1600 900" fill="none" xmlns="http://www.w3.org/2000/svg">
  <rect width="1600" height="900" rx="32" fill="#090C15"/>
  <rect x="28" y="28" width="1544" height="844" rx="22" stroke="rgba(255,178,95,0.22)" stroke-width="2"/>
  <rect x="92" y="96" width="1416" height="708" rx="28" fill="url(#a)"/>
  <path d="M164 240H1438" stroke="rgba(103,215,255,0.12)" stroke-width="2"/>
  <path d="M164 334H1438" stroke="rgba(103,215,255,0.12)" stroke-width="2"/>
  <path d="M164 428H1438" stroke="rgba(103,215,255,0.12)" stroke-width="2"/>
  <path d="M164 522H1438" stroke="rgba(103,215,255,0.12)" stroke-width="2"/>
  <path d="M164 616H1438" stroke="rgba(103,215,255,0.12)" stroke-width="2"/>
  <path d="M164 710H1438" stroke="rgba(103,215,255,0.12)" stroke-width="2"/>
  <g opacity="0.95">
    <rect x="174" y="152" width="188" height="118" rx="20" fill="#141D36"/>
    <rect x="388" y="152" width="188" height="118" rx="20" fill="#141D36"/>
    <rect x="602" y="152" width="188" height="118" rx="20" fill="#141D36"/>
    <rect x="816" y="152" width="188" height="118" rx="20" fill="#141D36"/>
    <rect x="1030" y="152" width="188" height="118" rx="20" fill="#141D36"/>
    <rect x="1244" y="152" width="188" height="118" rx="20" fill="#141D36"/>
    <rect x="280" y="312" width="188" height="118" rx="20" fill="#141D36"/>
    <rect x="494" y="312" width="188" height="118" rx="20" fill="#141D36"/>
    <rect x="708" y="312" width="188" height="118" rx="20" fill="#141D36"/>
    <rect x="922" y="312" width="188" height="118" rx="20" fill="#141D36"/>
    <rect x="1136" y="312" width="188" height="118" rx="20" fill="#141D36"/>
  </g>
  <g opacity="0.98">
    <circle cx="226" cy="208" r="14" fill="#67D7FF"/>
    <circle cx="440" cy="208" r="14" fill="#FFB25F"/>
    <circle cx="654" cy="208" r="14" fill="#8A73FF"/>
    <circle cx="868" cy="208" r="14" fill="#67D7FF"/>
    <circle cx="1082" cy="208" r="14" fill="#FF5FA7"/>
    <circle cx="1296" cy="208" r="14" fill="#FFB25F"/>
    <circle cx="332" cy="368" r="14" fill="#67D7FF"/>
    <circle cx="546" cy="368" r="14" fill="#8A73FF"/>
    <circle cx="760" cy="368" r="14" fill="#FFB25F"/>
    <circle cx="974" cy="368" r="14" fill="#FF5FA7"/>
    <circle cx="1188" cy="368" r="14" fill="#67D7FF"/>
    <path d="M226 208L440 208L654 208L868 208L1082 208L1296 208" stroke="#67D7FF" stroke-width="8" stroke-linecap="round"/>
    <path d="M1296 208L1188 368L974 368L760 368L546 368L332 368" stroke="#FFB25F" stroke-width="8" stroke-linecap="round"/>
  </g>
  <g opacity="0.95">
    <rect x="184" y="516" width="520" height="216" rx="24" fill="rgba(13,20,39,0.88)" stroke="rgba(103,215,255,0.18)" stroke-width="2"/>
    <text fill="#F8FAFF" font-family="'Chakra Petch', sans-serif" font-size="62" font-weight="700" x="220" y="594">GenericRPG in C#</text>
    <text fill="#FFE1BF" font-family="'IBM Plex Mono', monospace" font-size="24" font-weight="600" letter-spacing="2" x="220" y="636">8 VOLUMES / 200 CHAPTERS / PAPERBACK FIRST</text>
    <text fill="#C7D0E0" font-family="'Sora', sans-serif" font-size="28" font-weight="500" x="220" y="692">Language fundamentals, architecture,</text>
    <text fill="#C7D0E0" font-family="'Sora', sans-serif" font-size="28" font-weight="500" x="220" y="728">game systems, web stack, multiplayer, and launch.</text>
    <rect x="860" y="516" width="556" height="216" rx="24" fill="rgba(13,20,39,0.88)" stroke="rgba(255,178,95,0.18)" stroke-width="2"/>
    <text fill="#DDF6FF" font-family="'IBM Plex Mono', monospace" font-size="26" font-weight="600" letter-spacing="2" x="900" y="578">RELEASE TRACK</text>
    <rect x="900" y="612" width="476" height="16" rx="8" fill="#243558"/>
    <rect x="900" y="612" width="216" height="16" rx="8" fill="#67D7FF"/>
    <rect x="900" y="652" width="476" height="16" rx="8" fill="#243558"/>
    <rect x="900" y="652" width="386" height="16" rx="8" fill="#FFB25F"/>
    <rect x="900" y="692" width="476" height="16" rx="8" fill="#243558"/>
    <rect x="900" y="692" width="446" height="16" rx="8" fill="#8A73FF"/>
  </g>
  <defs>
    <linearGradient id="a" x1="800" y1="96" x2="800" y2="804" gradientUnits="userSpaceOnUse">
      <stop stop-color="#0F1428"/>
      <stop offset="1" stop-color="#090D16"/>
    </linearGradient>
  </defs>
</svg>
