<svg width="1600" height="900" viewBox="0 0 1600 900" fill="none" xmlns="http://www.w3.org/2000/svg">
  <rect width="1600" height="900" rx="32" fill="#070A14"/>
  <rect x="28" y="28" width="1544" height="844" rx="22" stroke="rgba(103,215,255,0.22)" stroke-width="2"/>
  <rect y="620" width="1600" height="280" fill="url(#ground)"/>
  <path d="M0 690L210 640L420 664L640 612L840 648L1030 606L1260 666L1600 612V900H0V690Z" fill="#0E1630"/>
  <path d="M0 730L220 688L432 710L628 670L850 700L1056 664L1318 722L1600 668V900H0V730Z" fill="#142147"/>
  <circle cx="1262" cy="174" r="86" fill="url(#moon)"/>
  <circle cx="286" cy="182" r="4" fill="#CBEFFF"/>
  <circle cx="356" cy="106" r="3" fill="#CBEFFF"/>
  <circle cx="484" cy="164" r="2.5" fill="#CBEFFF"/>
  <circle cx="594" cy="112" r="3" fill="#CBEFFF"/>
  <circle cx="724" cy="150" r="4" fill="#CBEFFF"/>
  <circle cx="1370" cy="112" r="3" fill="#FFE1BF"/>
  <circle cx="1486" cy="208" r="2.5" fill="#CBEFFF"/>
  <path d="M118 94H554" stroke="rgba(103,215,255,0.12)" stroke-width="2"/>
  <path d="M118 136H554" stroke="rgba(103,215,255,0.12)" stroke-width="2"/>
  <path d="M118 178H554" stroke="rgba(103,215,255,0.12)" stroke-width="2"/>
  <g opacity="0.85">
    <path d="M970 642C970 600.026 1004.03 566 1046 566H1152C1193.97 566 1228 600.026 1228 642V768H970V642Z" fill="#10192F"/>
    <rect x="1000" y="540" width="46" height="68" rx="14" fill="#1C2947"/>
    <rect x="1138" y="540" width="46" height="68" rx="14" fill="#1C2947"/>
    <circle cx="1098" cy="646" r="20" fill="#67D7FF"/>
    <circle cx="1098" cy="646" r="54" stroke="rgba(103,215,255,0.28)" stroke-width="6"/>
  </g>
  <g opacity="0.95">
    <path d="M490 516C515.088 516 540.657 525.033 558.734 543.11L626 610.376L676.578 589.756C719.131 572.417 768.02 577.353 806.16 602.75L890 658.643" stroke="#67D7FF" stroke-width="16" stroke-linecap="round"/>
    <path d="M890 658.644L992.806 716.691" stroke="#FF8AA6" stroke-width="16" stroke-linecap="round"/>
    <circle cx="490" cy="516" r="18" fill="#FFE1BF"/>
    <circle cx="626" cy="610" r="18" fill="#FFE1BF"/>
    <circle cx="676" cy="589" r="18" fill="#FFE1BF"/>
    <circle cx="890" cy="658" r="18" fill="#FFE1BF"/>
    <circle cx="992" cy="716" r="18" fill="#FFE1BF"/>
  </g>
  <g opacity="0.95">
    <path d="M332 622L382 520H438L486 622L456 626L440 582H380L362 626L332 622Z" fill="#182646"/>
    <rect x="392" y="456" width="38" height="74" rx="18" fill="#213259"/>
    <circle cx="412" cy="430" r="32" fill="#D7EEFF"/>
    <path d="M384 394C396.664 382 407.332 376 416 376C429.398 376 442.819 388.282 456 412" stroke="#FFB25F" stroke-width="10" stroke-linecap="round"/>
    <path d="M354 430C354 398.52 380.52 372 412 372C443.48 372 470 398.52 470 430" stroke="rgba(103,215,255,0.22)" stroke-width="6"/>
  </g>
  <g opacity="0.92">
    <rect x="116" y="692" width="308" height="86" rx="18" fill="rgba(11,16,31,0.82)" stroke="rgba(103,215,255,0.24)" stroke-width="2"/>
    <rect x="144" y="716" width="160" height="12" rx="6" fill="#2A3E66"/>
    <rect x="144" y="716" width="124" height="12" rx="6" fill="#67D7FF"/>
    <rect x="144" y="748" width="110" height="10" rx="5" fill="#FFB25F"/>
    <rect x="278" y="748" width="110" height="10" rx="5" fill="#FF5FA7"/>
    <text fill="#DDF6FF" font-family="'IBM Plex Mono', monospace" font-size="24" font-weight="600" letter-spacing="2" x="144" y="704">ENCOUNTER HUD</text>
  </g>
  <defs>
    <linearGradient id="ground" x1="800" y1="620" x2="800" y2="900" gradientUnits="userSpaceOnUse">
      <stop stop-color="#0C1326"/>
      <stop offset="1" stop-color="#06080F"/>
    </linearGradient>
    <radialGradient id="moon" cx="0" cy="0" r="1" gradientUnits="userSpaceOnUse" gradientTransform="translate(1262 174) rotate(90) scale(86)">
      <stop stop-color="#D6DEFF"/>
      <stop offset="1" stop-color="#A59CFF"/>
    </radialGradient>
  </defs>
</svg>
